<svg width="48" height="48" viewBox="0 0 48 48" fill="none" xmlns="http://www.w3.org/2000/svg">
<path d="M24 46.6453C18.3404 41.4364 14.1229 36.619 11.3163 32.1944C8.39848 27.5943 7 23.4298 7 19.68C7 13.8955 8.73625 9.39096 12.1294 6.05287C15.5748 2.66347 19.5184 1 24 1C28.4816 1 32.4252 2.66347 35.8706 6.05287C39.2638 9.39096 41 13.8955 41 19.68C41 23.4298 39.6015 27.5943 36.6837 32.1944C33.8771 36.619 29.6596 41.4364 24 46.6453Z" fill="#FF3566" stroke="white" stroke-width="2"/>
<path fill-rule="evenodd" clip-rule="evenodd" d="M23.9926 34L22.4144 32.5654C20.1504 30.466 18.2813 28.6689 16.8073 27.1742C15.3333 25.6794 14.1642 24.3434 13.3002 23.1662C12.4361 21.9891 11.8367 20.9206 11.502 19.9609C11.1673 19.0011 11 18.0319 11 17.0534C11 15.0629 11.681 13.3897 13.043 12.0338C14.405 10.6779 16.0746 10 18.0518 10C19.1843 10 20.2615 10.2615 21.2836 10.7845C21.6763 10.9854 22.0514 11.2219 22.409 11.494L20.3951 13.0458C19.6408 12.6157 18.8578 12.4007 18.046 12.4007C16.6922 12.4007 15.5819 12.8363 14.7151 13.7075C13.8483 14.5788 13.4149 15.6976 13.4149 17.064C13.4149 17.8554 13.5744 18.6629 13.8935 19.4864C13.9088 19.526 13.9247 19.5658 13.9411 19.6058L24.1393 11.8633L34.0233 19.6863C34.0566 19.6089 34.088 19.5325 34.1173 19.457C34.4341 18.6406 34.5925 17.8385 34.5925 17.0507C34.5925 15.7114 34.1567 14.6015 33.2849 13.7212C32.4131 12.8409 31.2995 12.4007 29.944 12.4007C29.1465 12.4007 28.3872 12.5957 27.6663 12.9856L25.7549 11.405C26.0993 11.1522 26.4504 10.9351 26.8082 10.7534C27.7975 10.2511 28.8392 10 29.9333 10C31.919 10 33.5931 10.678 34.9559 12.0341C36.3186 13.3901 37 15.0635 37 17.0542C37 18.032 36.8314 18.9997 36.4943 19.957C36.1571 20.9144 35.5577 21.9817 34.6961 23.1588C33.8345 24.336 32.667 25.6734 31.1937 27.1713C29.7204 28.6691 27.8485 30.4671 25.5781 32.5654L23.9926 34ZM32.9309 21.5815C32.7829 21.7931 32.624 22.0097 32.4542 22.2312C31.6623 23.2643 30.5822 24.4695 29.214 25.8468C27.8457 27.2241 26.104 28.8808 23.9888 30.8169C21.8885 28.9113 20.1607 27.2699 18.8053 25.8926C17.4499 24.5154 16.3722 23.3093 15.5721 22.2743C15.3718 22.0151 15.1865 21.7626 15.0164 21.5167L24.1393 14.7541L32.9309 21.5815ZM23.6127 18.8506H20.8099V21.6456H23.6127V18.8506ZM23.6127 22.5772H20.8099V25.3721H23.6127V22.5772ZM24.547 18.8506H27.3499V21.6456H24.547V18.8506ZM27.3499 22.5772H24.547V25.3721H27.3499V22.5772Z" fill="white"/>
</svg>
