<svg width="48" height="48" viewBox="0 0 48 48" fill="none" xmlns="http://www.w3.org/2000/svg">
<g clip-path="url(#clip0_113_111)">
<circle cx="24" cy="24" r="24" fill="#F5F5F4"/>
<path d="M13.3333 33.3333V30.6667H16V21.3333C16 19.4889 16.5556 17.85 17.6667 16.4167C18.7778 14.9833 20.2222 14.0444 22 13.6V12.6667C22 12.1111 22.1944 11.6389 22.5833 11.25C22.9722 10.8611 23.4444 10.6667 24 10.6667C24.5556 10.6667 25.0278 10.8611 25.4167 11.25C25.8056 11.6389 26 12.1111 26 12.6667V13.6C27.7778 14.0444 29.2222 14.9833 30.3333 16.4167C31.4444 17.85 32 19.4889 32 21.3333V30.6667H34.6667V33.3333H13.3333ZM24 37.3333C23.2667 37.3333 22.6389 37.0722 22.1167 36.55C21.5944 36.0278 21.3333 35.4 21.3333 34.6667H26.6667C26.6667 35.4 26.4056 36.0278 25.8833 36.55C25.3611 37.0722 24.7333 37.3333 24 37.3333Z" fill="#A8A29E"/>
</g>
<defs>
<clipPath id="clip0_113_111">
<rect width="48" height="48" fill="white"/>
</clipPath>
</defs>
</svg>
