<svg width="128" height="128" viewBox="0 0 128 128" fill="none" xmlns="http://www.w3.org/2000/svg">
<path fill-rule="evenodd" clip-rule="evenodd" d="M63.6261 115.044L56.8696 108.884C47.1762 99.8704 39.1741 92.1547 32.8633 85.7369C26.5525 79.3192 21.5473 73.5832 17.8479 68.5291C14.1483 63.4749 11.5821 58.8875 10.1492 54.7668C8.7164 50.646 8 46.485 8 42.2839C8 33.7376 10.9156 26.5538 16.7468 20.7323C22.5781 14.9107 29.7263 12 38.1913 12C43.04 12 47.6521 13.1227 52.0279 15.3681C53.7092 16.2309 55.3152 17.2463 56.8461 18.4144L48.2239 25.077C44.9947 23.2306 41.6423 22.3073 38.1667 22.3073C32.3706 22.3073 27.617 24.1776 23.9059 27.9183C20.1948 31.659 18.3392 36.4626 18.3392 42.3291C18.3392 45.727 19.0221 49.194 20.388 52.7299C20.4536 52.8997 20.5216 53.0706 20.592 53.2425L64.2542 20L106.571 53.5881C106.714 53.2558 106.849 52.9276 106.974 52.6033C108.33 49.0984 109.009 45.6546 109.009 42.272C109.009 36.5216 107.143 31.7566 103.41 27.9769C99.6779 24.1972 94.91 22.3073 89.1064 22.3073C85.6919 22.3073 82.4414 23.1444 79.3548 24.8186L71.1712 18.0322C72.646 16.9471 74.1492 16.0146 75.6808 15.2348C79.9164 13.0783 84.3764 12 89.0609 12C97.5621 12 104.73 14.9111 110.564 20.7332C116.399 26.5552 119.316 33.7399 119.316 42.2871C119.316 46.4855 118.594 50.6399 117.151 54.7503C115.707 58.8608 113.141 63.4431 109.452 68.4972C105.763 73.5512 100.765 79.2937 94.4569 85.7245C88.149 92.1554 80.1349 99.8752 70.4145 108.884L63.6261 115.044ZM101.895 61.7248C101.261 62.6333 100.581 63.5632 99.8536 64.5145C96.4633 68.9503 91.8391 74.1248 85.9809 80.038C80.1229 85.9513 72.666 93.0643 63.6101 101.377C54.6179 93.1952 47.2203 86.1479 41.4175 80.2348C35.6145 74.3218 31.0004 69.1434 27.5749 64.6995C26.7172 63.5868 25.9241 62.5025 25.1956 61.4468L64.2542 32.4115L101.895 61.7248ZM62 50H50V62H62V50ZM62 66H50V78H62V66ZM66 50H78V62H66V50ZM78 66H66V78H78V66Z" fill="#FF3566"/>
</svg>
