<svg width="280" height="60" viewBox="0 0 280 60" fill="none" xmlns="http://www.w3.org/2000/svg">
<g clip-path="url(#clip0_5_3)">
<path d="M95.416 50V17.84H85.528V14.24H109.048V17.84H99.256V50H95.416ZM119.051 50.576C116.619 50.576 114.411 50 112.427 48.848C110.443 47.664 108.859 46.064 107.675 44.048C106.523 42 105.947 39.68 105.947 37.088C105.947 34.528 106.523 32.24 107.675 30.224C108.827 28.208 110.379 26.624 112.331 25.472C114.315 24.288 116.555 23.696 119.051 23.696C121.547 23.696 123.771 24.272 125.723 25.424C127.708 26.576 129.26 28.16 130.379 30.176C131.531 32.192 132.108 34.496 132.108 37.088C132.108 39.712 131.516 42.048 130.332 44.096C129.148 46.112 127.563 47.696 125.579 48.848C123.628 50 121.451 50.576 119.051 50.576ZM119.051 46.976C120.78 46.976 122.332 46.544 123.707 45.68C125.115 44.816 126.219 43.632 127.019 42.128C127.852 40.624 128.268 38.944 128.268 37.088C128.268 35.232 127.852 33.568 127.019 32.096C126.219 30.624 125.115 29.456 123.707 28.592C122.332 27.728 120.78 27.296 119.051 27.296C117.323 27.296 115.755 27.728 114.347 28.592C112.971 29.456 111.867 30.624 111.035 32.096C110.203 33.568 109.787 35.232 109.787 37.088C109.787 38.944 110.203 40.624 111.035 42.128C111.867 43.632 112.971 44.816 114.347 45.68C115.755 46.544 117.323 46.976 119.051 46.976ZM135.577 50V13.664H139.177V39.104L137.641 38.864L152.089 24.272H156.745L146.665 34.592L157.657 50H153.337L143.017 35.744L145.321 35.936L137.977 43.52L139.177 40.544V50H135.577ZM170.573 50.576C168.141 50.576 165.933 50 163.949 48.848C161.965 47.664 160.381 46.064 159.197 44.048C158.045 42 157.469 39.68 157.469 37.088C157.469 34.528 158.045 32.24 159.197 30.224C160.349 28.208 161.901 26.624 163.853 25.472C165.837 24.288 168.077 23.696 170.573 23.696C173.069 23.696 175.293 24.272 177.245 25.424C179.229 26.576 180.781 28.16 181.901 30.176C183.053 32.192 183.629 34.496 183.629 37.088C183.629 39.712 183.037 42.048 181.853 44.096C180.669 46.112 179.085 47.696 177.101 48.848C175.149 50 172.973 50.576 170.573 50.576ZM170.573 46.976C172.301 46.976 173.853 46.544 175.229 45.68C176.637 44.816 177.741 43.632 178.541 42.128C179.373 40.624 179.789 38.944 179.789 37.088C179.789 35.232 179.373 33.568 178.541 32.096C177.741 30.624 176.637 29.456 175.229 28.592C173.853 27.728 172.301 27.296 170.573 27.296C168.845 27.296 167.277 27.728 165.869 28.592C164.493 29.456 163.389 30.624 162.557 32.096C161.725 33.568 161.309 35.232 161.309 37.088C161.309 38.944 161.725 40.624 162.557 42.128C163.389 43.632 164.493 44.816 165.869 45.68C167.277 46.544 168.845 46.976 170.573 46.976ZM193.53 50L183.93 14.24H190.938L198.474 44.72H196.65L204.522 14.24H211.29L219.114 44.72H217.29L224.826 14.24H231.834L222.234 50H214.746L206.826 20.336H208.938L201.018 50H193.53ZM228.066 50L240.402 14.24H248.85L261.186 50H254.082L251.538 42.32H237.714L235.122 50H228.066ZM239.586 36.56H249.666L243.714 18.752H245.538L239.586 36.56Z" fill="white"/>
<mask id="mask0_5_3" style="mask-type:luminance" maskUnits="userSpaceOnUse" x="20" y="15" width="26" height="25">
<path d="M45.3307 15.05H20.625V39.7449H45.3307V15.05Z" fill="white"/>
</mask>
<g mask="url(#mask0_5_3)">
<path fill-rule="evenodd" clip-rule="evenodd" d="M28.4586 36.6579C28.4586 35.8674 29.0999 35.2267 29.8904 35.2267C30.6809 35.2267 31.3221 35.8674 31.3221 36.6579C31.3221 37.4485 30.6809 38.0892 29.8904 38.0892C29.0998 38.0892 28.4586 37.4485 28.4586 36.6579ZM29.8904 36.0314C29.5439 36.0314 29.2633 36.3122 29.2633 36.6579C29.2633 37.0038 29.5439 37.2845 29.8904 37.2845C30.2368 37.2845 30.5174 37.0038 30.5174 36.6579C30.5174 36.3122 30.2369 36.0314 29.8904 36.0314Z" fill="#F5F5F4"/>
<path fill-rule="evenodd" clip-rule="evenodd" d="M39.7818 36.6579C39.7818 35.8674 40.423 35.2267 41.2135 35.2267C42.0043 35.2267 42.6453 35.8674 42.6453 36.6579C42.6453 37.4485 42.0043 38.0892 41.2135 38.0892C40.423 38.0892 39.7818 37.4485 39.7818 36.6579ZM41.2135 36.0314C40.867 36.0314 40.5865 36.3122 40.5865 36.6579C40.5865 37.0038 40.8671 37.2845 41.2135 37.2845C41.5601 37.2845 41.8406 37.0039 41.8406 36.6579C41.8406 36.3121 41.5602 36.0314 41.2135 36.0314Z" fill="#F5F5F4"/>
<path fill-rule="evenodd" clip-rule="evenodd" d="M20.6495 16.08C20.6495 15.5245 21.0999 15.0741 21.6554 15.0741H25.773C26.2524 15.0741 26.6651 15.4125 26.7593 15.8825L27.6275 20.2189H44.3021C44.6019 20.2189 44.8861 20.3526 45.0772 20.5836C45.2683 20.8146 45.3463 21.1188 45.2902 21.4133L43.643 30.0462L43.6415 30.0536C43.5013 30.7593 43.1176 31.3925 42.5574 31.8434C42 32.2921 41.303 32.5316 40.5875 32.5202H30.5993C29.8837 32.5316 29.1868 32.2921 28.6294 31.8434C28.0696 31.3928 27.6856 30.76 27.5452 30.0544C27.5452 30.0541 27.5451 30.0539 27.5451 30.0536L25.8254 21.4649C25.8187 21.4375 25.8131 21.4096 25.8086 21.3813L24.9486 17.0859H21.6554C21.0999 17.0859 20.6495 16.6355 20.6495 16.08ZM28.0303 22.2306L29.5182 29.6617C29.5663 29.9037 29.698 30.1211 29.8908 30.2763C30.0833 30.4313 30.3241 30.5135 30.5708 30.5086C30.5773 30.5085 30.5839 30.5085 30.5904 30.5085H40.5963C40.6029 30.5085 40.6095 30.5085 40.616 30.5086C40.8627 30.5135 41.1034 30.4313 41.296 30.2763C41.4878 30.1219 41.6191 29.9057 41.6677 29.6647L43.0862 22.2306H28.0303Z" fill="#F5F5F4"/>
</g>
<path fill-rule="evenodd" clip-rule="evenodd" d="M34.7943 59.3774C51.2218 59.3774 64.539 46.0659 64.539 29.6454C64.539 13.2248 51.2218 -0.0865784 34.7943 -0.0865784C18.3666 -0.0865784 5.04947 13.2248 5.04947 29.6454C5.04947 34.9777 6.45385 39.9822 8.91318 44.3096L5.78837 56.496C5.45161 57.8091 6.62726 59.0117 7.94836 58.7055L20.591 55.775C24.8114 58.0722 29.6504 59.3774 34.7943 59.3774ZM34.7943 54.8032C48.6945 54.8032 59.9628 43.5398 59.9628 29.6454C59.9628 15.7511 48.6945 4.48747 34.7943 4.48747C20.894 4.48747 9.62573 15.7511 9.62573 29.6454C9.62573 35.0101 11.3055 39.9824 14.1682 44.0658L11.9137 52.5162L20.5166 50.3663C24.5734 53.1646 29.4925 54.8032 34.7943 54.8032Z" fill="#F5F5F4"/>
<path d="M1.80938 21.8548C0.311432 21.8548 -0.902924 23.0687 -0.902924 24.566V31.7958C-0.902924 33.2931 0.311412 34.5067 1.80936 34.5067C3.3073 34.5067 4.5216 33.2931 4.5216 31.7958V24.566C4.5216 23.0687 3.30732 21.8548 1.80938 21.8548Z" fill="#F5F5F4"/>
<path d="M4.52159 18.2392H4.52139C2.52416 18.2392 0.905106 19.8576 0.905106 21.854V34.5061C0.905106 36.5026 2.52416 38.121 4.52139 38.121H4.52159C6.51883 38.121 8.13786 36.5026 8.13786 34.5061V21.854C8.13786 19.8576 6.51883 18.2392 4.52159 18.2392Z" fill="#F5F5F4"/>
<path d="M66.904 21.8548H66.9042C68.4021 21.8548 69.6164 23.0687 69.6164 24.566V31.7958C69.6164 33.2931 68.4021 34.5067 66.9042 34.5067H66.904C65.4061 34.5067 64.1918 33.2931 64.1918 31.7958V24.566C64.1918 23.0687 65.4061 21.8548 66.904 21.8548Z" fill="#F5F5F4"/>
<path d="M64.1918 18.2392C66.189 18.2392 67.8081 19.8576 67.8081 21.854V34.5061C67.8081 36.5026 66.189 38.121 64.1918 38.121C62.1944 38.121 60.5753 36.5026 60.5753 34.5061V21.854C60.5753 19.8576 62.1944 18.2392 64.1918 18.2392Z" fill="#F5F5F4"/>
<path fill-rule="evenodd" clip-rule="evenodd" d="M24.4017 40.1133C24.7809 39.8289 25.3189 39.9058 25.6033 40.285L24.9167 40.8C25.6033 40.285 25.6032 40.2848 25.603 40.2845L25.6027 40.2842L25.6024 40.2838C25.6024 40.2837 25.6025 40.2839 25.6029 40.2844L25.608 40.2911L25.6346 40.3251C25.6596 40.3567 25.6991 40.4056 25.7527 40.4695C25.8599 40.5973 26.0234 40.7843 26.2405 41.0108C26.6753 41.4646 27.3213 42.0728 28.1574 42.6808C29.8329 43.8994 32.2343 45.0917 35.2166 45.0917C38.1988 45.0917 40.6003 43.8994 42.2759 42.6808C43.112 42.0728 43.758 41.4646 44.1929 41.0108C44.41 40.7843 44.5734 40.5973 44.6807 40.4695C44.7343 40.4056 44.7737 40.3567 44.7988 40.3251L44.8254 40.291L44.83 40.285L44.8304 40.2845C44.8305 40.2844 44.8305 40.2843 44.8306 40.2842C45.1152 39.9057 45.6527 39.8291 46.0317 40.1133C46.4109 40.3978 46.4878 40.9358 46.2033 41.315L45.5167 40.8C46.2033 41.315 46.2031 41.3153 46.2029 41.3156L46.2024 41.3163L46.201 41.3181L46.1972 41.3231L46.1854 41.3385L46.1447 41.3906C46.11 41.4345 46.0602 41.4961 45.9956 41.5731C45.8665 41.7269 45.6779 41.9423 45.4323 42.1986C44.9418 42.7104 44.2198 43.3897 43.2855 44.0692C41.4204 45.4256 38.6718 46.8083 35.2166 46.8083C31.7613 46.8083 29.0128 45.4256 27.1477 44.0692C26.2135 43.3897 25.4915 42.7104 25.001 42.1986C24.7554 41.9423 24.5669 41.7269 24.4377 41.5731C24.3731 41.4961 24.3233 41.4344 24.2886 41.3906L24.2479 41.3385L24.2361 41.323L24.2323 41.3181L24.231 41.3163L24.2304 41.3156C24.2302 41.3153 24.23 41.315 24.9167 40.8L24.23 41.315C23.9456 40.9357 24.0224 40.3977 24.4017 40.1133Z" fill="#F5F5F4"/>
</g>
<defs>
<clipPath id="clip0_5_3">
<rect width="280" height="60" fill="white"/>
</clipPath>
</defs>
</svg>
